<svg xmlns="http://www.w3.org/2000/svg" width="70" height="70" viewBox="0 0 70 70" fill="none"><path d="M68.2202 28.5741L62.4909 27.8101C61.8349 25.2946 60.8398 22.8959 59.52 20.649L63.034 16.0535C63.6584 15.237 63.582 14.0845 62.8551 13.3577L56.6423 7.14465C55.9156 6.41771 54.7628 6.34143 53.9463 6.96582L49.3511 10.4804C47.1045 9.16016 44.7057 8.16498 42.1899 7.50969L41.4261 1.78008C41.2903 0.76084 40.4212 0 39.3933 0H30.6067C29.5787 0 28.7097 0.76084 28.5739 1.7798L27.81 7.50941C25.2953 8.16471 22.8966 9.16002 20.6492 10.4803L16.0537 6.96555C15.2373 6.34102 14.0845 6.41744 13.3577 7.14438L7.14492 13.3576C6.41812 14.0844 6.34156 15.2369 6.96596 16.0534L10.48 20.6488C9.16016 22.8952 8.16484 25.2943 7.50914 27.81L1.7798 28.5739C0.76084 28.7098 0 29.579 0 30.6068V39.3933C0 40.4212 0.76084 41.2903 1.7798 41.4261L7.50914 42.19C8.16512 44.7055 9.16016 47.1043 10.48 49.3511L6.96596 53.9466C6.34156 54.7631 6.41799 55.9156 7.14492 56.6424L13.3577 62.8555C14.0844 63.5824 15.2373 63.6587 16.0537 63.0343L20.6489 59.5197C22.8955 60.84 25.2943 61.8352 27.8101 62.4904L28.5739 68.2201C28.7097 69.2389 29.5788 69.9999 30.6067 69.9999H39.3933C40.4213 69.9999 41.2903 69.239 41.4261 68.2201L42.19 62.4904C44.7047 61.8352 47.1034 60.8398 49.3508 59.5195L53.9463 63.0343C54.7626 63.6587 55.9154 63.5824 56.6423 62.8555L62.8551 56.6424C63.5819 55.9156 63.6584 54.7631 63.034 53.9466L59.52 49.3512C60.8398 47.1048 61.8353 44.7057 62.4909 42.19L68.2202 41.4261C69.239 41.2902 70 40.4212 70 39.3933V30.6068C70 29.579 69.2392 28.7098 68.2202 28.5741ZM50.6697 42.1755C50.6697 45.3577 48.351 48.0087 45.3145 48.5275C43.6449 52.5664 38.1583 53.742 35 50.6912C31.8404 53.743 26.3542 52.5649 24.6855 48.5275C20.7886 47.9347 18.2477 43.5662 19.7654 39.8429C16.8664 37.3965 16.867 32.6028 19.7654 30.157C18.2477 26.4331 20.789 22.065 24.6855 21.4724C26.3551 17.4334 31.8417 16.2578 35 19.3087C38.1594 16.2567 43.6458 17.4349 45.3145 21.4724C49.2114 22.0652 51.7523 26.4336 50.2346 30.157C53.1337 32.6033 53.133 37.3971 50.2346 39.8429C50.5203 40.5784 50.6697 41.3673 50.6697 42.1755Z" fill="#edb40b"></path><path d="M46.7458 32.7843C46.0865 32.5569 45.5879 32.0102 45.4221 31.3328C45.2564 30.6553 45.4463 29.9401 45.9262 29.4341C47.4172 27.8783 46.123 25.2541 43.9711 25.4954C42.8604 25.6146 41.8582 24.824 41.717 23.716C41.2657 20.8393 37.1312 21.102 37.0508 24.0168V45.983C37.1321 48.8992 41.2661 49.1594 41.717 46.2838C41.8584 45.1758 42.8605 44.3839 43.9711 44.5044C46.1247 44.7453 47.4164 42.1206 45.9262 40.5657C45.4463 40.0597 45.2564 39.3445 45.4221 38.667C45.5878 37.9896 46.0864 37.4429 46.7458 37.2155C48.8384 36.4936 48.8374 33.5056 46.7458 32.7843Z" fill="white" fill-opacity="0.80"></path><path d="M30.6068 21.6743C29.4304 21.6743 28.4314 22.5521 28.283 23.7159C28.1416 24.8239 27.1394 25.6146 26.0289 25.4953C23.8758 25.2543 22.5833 27.8787 24.0738 29.4341C24.5537 29.9401 24.7436 30.6552 24.5779 31.3327C24.4122 32.0101 23.9136 32.5569 23.2542 32.7842C21.1615 33.5061 21.1625 36.4942 23.2542 37.2155C23.9134 37.4429 24.412 37.9896 24.5779 38.6671C24.7436 39.3445 24.5537 40.0597 24.0738 40.5657C22.583 42.1212 23.8764 44.7456 26.0289 44.5044C27.1394 44.384 28.1417 45.1759 28.283 46.2838C28.7343 49.1605 32.8688 48.8979 32.9492 45.983V24.0169C32.9492 22.7251 31.8983 21.6743 30.6068 21.6743Z" fill="white" fill-opacity="0.8"></path></svg>
