<svg xmlns="http://www.w3.org/2000/svg" width="70" height="70" viewBox="0 0 70 70" fill="none"><path d="M63.556 0H6.44396C2.95928 0 0 2.81025 0 6.4441V15.5221C0 19.1558 2.95914 21.9662 6.44396 21.9662H63.5559C67.0406 21.9662 69.9999 19.1558 69.9999 15.5221V6.4441C70 2.81053 67.041 0 63.556 0ZM15.2305 13.0338H13.0338C10.3157 12.9329 10.3178 9.03219 13.0338 8.93225H15.2305C17.9486 9.03314 17.9465 12.934 15.2305 13.0338ZM26.2135 13.0338H24.0168C21.2987 12.9329 21.3008 9.03219 24.0168 8.93225H26.2135C28.9316 9.03314 28.9296 12.934 26.2135 13.0338ZM56.9662 13.0338H43.7865C41.0684 12.9329 41.0704 9.03219 43.7865 8.93225H56.9662C59.6842 9.03314 59.6821 12.934 56.9662 13.0338Z" fill="#edb40b"></path><path d="M63.556 26.0679H6.44396C2.95928 26.0679 0 28.8781 0 32.512V41.59C0 45.2237 2.95914 48.0341 6.44396 48.0341H32.9492V52.7189H28.4102C27.2776 52.7189 26.3594 53.6371 26.3594 54.7696V59.3087H2.05078C-0.667324 59.4096 -0.665273 63.3103 2.05078 63.4103H26.3594V67.9493C26.3594 69.0819 27.2776 70.0001 28.4102 70.0001H41.5898C42.7224 70.0001 43.6406 69.0819 43.6406 67.9493V63.4103H67.9492C70.6673 63.3094 70.6653 59.4086 67.9492 59.3087H43.6406V54.7696C43.6406 53.6371 42.7224 52.7189 41.5898 52.7189H37.0508V48.0341H63.556C67.0407 48.0341 70 45.2237 70 41.59V32.512C70 28.8784 67.041 26.0679 63.556 26.0679ZM15.2305 39.1017H13.0338C10.3157 39.0008 10.3178 35.1001 13.0338 35.0001H15.2305C17.9486 35.101 17.9465 39.0019 15.2305 39.1017ZM26.2135 39.1017H24.0168C21.2987 39.0008 21.3008 35.1001 24.0168 35.0001H26.2135C28.9316 35.101 28.9296 39.0019 26.2135 39.1017ZM56.9662 39.1017H43.7865C41.0684 39.0008 41.0704 35.1001 43.7865 35.0001H56.9662C59.6842 35.101 59.6821 39.0019 56.9662 39.1017Z" fill="white" fill-opacity="0.8"></path></svg>